<svg width="160" height="160" viewBox="0 0 160 160" fill="none" xmlns="http://www.w3.org/2000/svg">
    <g fill="currentColor" clip-path="url(#clip0_329_2892)">
        <path d="M6.40795 70.4131H0V76.821H6.40795V70.4131Z" />
        <path d="M6.40795 89.6123H0V96.0202H6.40795V89.6123Z" />
        <path d="M6.40795 102.403H0V108.811H6.40795V102.403Z" />
        <path
            d="M12.7911 44.806H44.7811V38.398V0H0V38.398V44.806H12.7911ZM6.40795 6.40795H38.398V38.398H6.40795V6.40795Z"
            />
        <path
            d="M12.7911 64.0053H19.199V51.1895H12.7911V57.5974H6.40795V51.1895H0V64.0053H6.40795H12.7911Z"
            />
        <path d="M12.8162 95.9951H6.4082V102.403H12.8162V95.9951Z" />
        <path d="M25.6069 32.0149H31.99V12.791H25.6069H19.199H12.791V32.0149H19.199H25.6069Z"
            />
        <path d="M25.6072 95.9951H19.1992V102.403H25.6072V95.9951Z" />
        <path d="M19.199 128.01H12.791V147.209H19.199H25.6069H31.99V128.01H25.6069H19.199Z"
            />
        <path
            d="M31.9905 95.9954V89.6123H25.6074V95.9954H31.9905V102.403H25.6074V108.811H31.9905V102.403H38.3985V95.9954H31.9905Z"
            />
        <path
            d="M31.9901 115.219H0V147.209V160H44.806V147.209V115.194H32.0149L31.9901 115.219ZM38.398 147.209V153.617H6.40795V147.209V121.602H38.398V147.209Z"
            />
        <path d="M44.8064 51.1895H38.3984V57.5974H44.8064V51.1895Z" />
        <path d="M51.2136 57.5967H44.8057V64.0046H51.2136V57.5967Z" />
        <path
            d="M51.189 95.9954H57.597V89.6123H64.0049V76.7964H57.597V83.2044H51.189V70.4133H44.8059V76.7964H38.398H31.99V70.4133H38.398H44.8059V64.0053H38.398V57.5974H31.99V51.1895H25.6069V57.5974H31.99V70.4133H25.6069H19.199V76.7964H12.791V89.6123H19.199V83.2044H25.6069H31.99H38.398H44.8059V89.6123H38.398V95.9954H44.8059H51.189Z"
            />
        <path d="M57.5974 64.0049H51.1895V70.4128H57.5974V64.0049Z" />
        <path d="M57.5974 153.617H51.1895V160.025H57.5974V153.617Z" />
        <path
            d="M64.0053 38.398V44.8059H70.4133V38.398H64.0053V32.0149H70.4133V25.6069H76.7964H83.2044V19.199H76.7964H70.4133V12.791H64.0053V25.6069H57.5974H51.1895V32.0149H57.5974V38.398H51.1895V44.8059H57.5974V38.398H64.0053Z"
            />
        <path d="M64.0046 44.8057H57.5967V51.2136H64.0046V44.8057Z" />
        <path d="M64.0046 57.5967H57.5967V64.0046H64.0046V57.5967Z" />
        <path
            d="M70.4133 6.40795V0H64.0053H57.5974V6.40795H51.1895V12.7911H57.5974H64.0053V6.40795H70.4133Z"
            />
        <path d="M70.4128 89.6123H64.0049V96.0202H70.4128V89.6123Z" />
        <path d="M70.4128 102.403H64.0049V108.811H70.4128V102.403Z" />
        <path
            d="M70.4133 121.602H64.0054V108.811H57.5974V102.403H51.1895H44.8064H38.3984V108.811H44.8064H51.1895V115.219H57.5974V128.01H51.1895V134.418H57.5974H64.0054V140.801H57.5974H51.1895V147.209H57.5974H64.0054H70.4133V153.617H76.7965V147.209H70.4133V140.801H76.7965V128.01H70.4133V121.602Z"
            />
        <path
            d="M70.4128 64.0047H64.0049V70.4126H70.4128V76.7957H76.7959V70.4126V64.0047H83.2039V57.5967H76.7959V44.8057H70.4128V51.1888H64.0049V57.5967H70.4128V64.0047Z"
            />
        <path d="M76.821 83.2041H70.4131V89.6121H76.821V83.2041Z" />
        <path d="M76.821 95.9951H70.4131V102.403H76.821V95.9951Z" />
        <path d="M83.2038 38.3984H76.7959V44.8064H83.2038V38.3984Z" />
        <path d="M83.2038 153.617H76.7959V160.025H83.2038V153.617Z" />
        <path
            d="M83.2041 76.7959H89.6121V83.2039H95.9952V70.4128H89.6121V64.0049H83.2041V70.4128V76.7959Z"
            />
        <path d="M89.6121 89.6123H83.2041V96.0202H89.6121V89.6123Z" />
        <path d="M95.9951 147.209V160H102.403H108.811V147.209H102.403H95.9951Z" />
        <path d="M121.602 115.219H115.194V121.627H121.602V115.219Z" />
        <path d="M121.602 147.209H115.194V153.617H121.602V147.209Z" />
        <path d="M128.01 153.617H121.602V160.025H128.01V153.617Z" />
        <path d="M134.418 51.1895H128.01V57.5974H134.418V51.1895Z" />
        <path
            d="M134.418 12.791H134.393H128.01V32.0149H134.393H134.418H140.801H147.209V12.791H140.801H134.418Z"
            />
        <path d="M140.801 76.7959H134.393V89.587H140.801V76.7959Z" />
        <path
            d="M153.617 51.1895H147.209V57.5974H153.617V64.0054H147.209H140.801V70.4133H147.209V83.2044H153.617V89.6123H147.209H140.801V95.9954H147.209V102.403H153.617V95.9954H160V76.7964H153.617V70.4133H160V57.5974H153.617V51.1895Z"
            />
        <path
            d="M153.617 0H115.219V38.398V44.806H160.025V38.398V0H153.617ZM147.209 38.398H121.602V6.40795H153.592V38.398H147.184H147.209Z"
            />
        <path
            d="M153.617 108.811H147.209V134.418H140.801V102.428H134.393V96.0199H127.985V102.428H121.577V96.0199H127.985V89.6119H121.577V83.204H127.985V76.796H121.577V70.3881H127.985V63.9801H121.577V57.5722H115.169V63.9801H108.761V51.1891H102.353V44.7811H95.9454V38.3732H102.353V44.7811H108.761V38.3732V25.5821H95.9702V19.1742H102.378V0H89.5871V6.40795H83.1792V0H76.7712V12.7911H89.5623V31.9901H83.1543V38.398H89.5623V44.806H83.1543V57.597H102.353V70.3881H115.144V76.796H102.353V89.5871H108.761V83.1791H115.169V89.5871H108.761V95.995H115.169V102.403H102.378V115.194H89.5871V121.602H83.1792V115.194H89.5871V108.786H83.1792V102.378H76.7712V108.786H70.3633V121.577H76.7712V127.985H89.5623V140.776H83.1543V147.184H89.5623V140.776H95.9702H102.378V134.368H108.786V140.776H115.194V134.368H121.602V140.776H128.01V147.184V153.592H140.801V147.184H134.393V140.776H140.801H147.209V134.368H160V127.96H153.592V121.552H160V108.761H153.592L153.617 108.811ZM102.428 134.418H96.0199V121.627H102.428V134.418ZM121.627 128.01H108.836V108.811H128.035V128.01H121.627Z"
            />
        <path
            d="M153.617 147.209H147.209V160H153.617H160V153.617H153.617V147.209H160V140.801H153.617V147.209Z"
            />
    </g>
    <defs>
        <clipPath id="clip0_329_2892">
            <rect width="160" height="160" fill="white" />
        </clipPath>
    </defs>
</svg>